<mxfile host="app.diagrams.net" modified="2024-05-28T12:06:34.958Z" agent="Mozilla/5.0 (Windows NT 10.0; Win64; x64) AppleWebKit/537.36 (KHTML, like Gecko) Chrome/125.0.0.0 Safari/537.36" etag="uzhXsfZGDUwe-2hEmFO4" version="24.4.9" type="github">
  <diagram name="Page-1" id="c4acf3e9-155e-7222-9cf6-157b1a14988f">
    <mxGraphModel dx="3000" dy="2591" grid="1" gridSize="10" guides="1" tooltips="1" connect="1" arrows="1" fold="1" page="1" pageScale="1" pageWidth="850" pageHeight="1100" background="#FFF3F2" math="0" shadow="0">
      <root>
        <mxCell id="0" />
        <mxCell id="1" parent="0" />
        <mxCell id="y7w65uzr-BQP8JjFJ-ky-61" value="" style="endArrow=none;dashed=1;html=1;rounded=0;" parent="1" edge="1">
          <mxGeometry width="50" height="50" relative="1" as="geometry">
            <mxPoint x="40" y="1040" as="sourcePoint" />
            <mxPoint x="40" y="-1080" as="targetPoint" />
          </mxGeometry>
        </mxCell>
        <mxCell id="y7w65uzr-BQP8JjFJ-ky-62" value="" style="endArrow=none;dashed=1;html=1;rounded=0;" parent="1" edge="1">
          <mxGeometry width="50" height="50" relative="1" as="geometry">
            <mxPoint x="1660" y="1050" as="sourcePoint" />
            <mxPoint x="1660" y="-1070" as="targetPoint" />
          </mxGeometry>
        </mxCell>
        <mxCell id="6Bizmu3YoD56EzF2CStt-7" style="edgeStyle=orthogonalEdgeStyle;rounded=0;orthogonalLoop=1;jettySize=auto;html=1;exitX=0.5;exitY=1;exitDx=0;exitDy=0;entryX=0.5;entryY=0;entryDx=0;entryDy=0;strokeWidth=2;" edge="1" parent="1" source="6Bizmu3YoD56EzF2CStt-1" target="6Bizmu3YoD56EzF2CStt-3">
          <mxGeometry relative="1" as="geometry" />
        </mxCell>
        <mxCell id="6Bizmu3YoD56EzF2CStt-1" value="&lt;b&gt;&lt;font style=&quot;font-size: 20px;&quot;&gt;BAŞLANGIÇ&lt;/font&gt;&lt;/b&gt;" style="ellipse;whiteSpace=wrap;html=1;" vertex="1" parent="1">
          <mxGeometry x="770" y="-1060" width="150" height="80" as="geometry" />
        </mxCell>
        <mxCell id="6Bizmu3YoD56EzF2CStt-8" style="edgeStyle=orthogonalEdgeStyle;rounded=0;orthogonalLoop=1;jettySize=auto;html=1;exitX=0.5;exitY=1;exitDx=0;exitDy=0;strokeWidth=2;" edge="1" parent="1" source="6Bizmu3YoD56EzF2CStt-3" target="6Bizmu3YoD56EzF2CStt-4">
          <mxGeometry relative="1" as="geometry" />
        </mxCell>
        <mxCell id="6Bizmu3YoD56EzF2CStt-3" value="&lt;div style=&quot;text-align: left;&quot;&gt;&lt;span style=&quot;font-size: 20px; background-color: initial;&quot;&gt;Kavşak= {&lt;/span&gt;&lt;/div&gt;&lt;blockquote style=&quot;margin: 0 0 0 40px; border: none; padding: 0px;&quot;&gt;&lt;div style=&quot;text-align: left;&quot;&gt;&lt;span style=&quot;font-size: 20px; background-color: initial;&quot;&gt;Yol : [...],&lt;/span&gt;&lt;/div&gt;&lt;/blockquote&gt;&lt;blockquote style=&quot;margin: 0 0 0 40px; border: none; padding: 0px;&quot;&gt;&lt;div style=&quot;text-align: left;&quot;&gt;&lt;span style=&quot;font-size: 20px;&quot;&gt;Araç Sayısı : [...],&lt;/span&gt;&lt;/div&gt;&lt;div style=&quot;text-align: left;&quot;&gt;&lt;span style=&quot;font-size: 20px;&quot;&gt;Bekleme Süresi : [...]&lt;/span&gt;&lt;/div&gt;&lt;/blockquote&gt;&lt;div&gt;&lt;div style=&quot;text-align: left;&quot;&gt;&lt;span style=&quot;font-size: 20px; background-color: initial;&quot;&gt;}&lt;/span&gt;&lt;/div&gt;&lt;div style=&quot;text-align: left;&quot;&gt;&lt;span style=&quot;font-size: 20px; background-color: initial;&quot;&gt;&lt;br&gt;&lt;/span&gt;&lt;/div&gt;&lt;span style=&quot;font-size: 20px;&quot;&gt;&lt;div style=&quot;text-align: left;&quot;&gt;&lt;span style=&quot;background-color: initial;&quot;&gt;max_araç_hata_payı = 2&lt;/span&gt;&lt;/div&gt;&lt;/span&gt;&lt;div style=&quot;font-size: 20px;&quot;&gt;&lt;div style=&quot;text-align: left;&quot;&gt;&lt;span style=&quot;background-color: initial;&quot;&gt;max_şerit = max(Kavşak[Yol])&lt;/span&gt;&lt;/div&gt;&lt;div style=&quot;text-align: left;&quot;&gt;&lt;span style=&quot;background-color: initial;&quot;&gt;max_araç_sayısı = count(max_şerit)&lt;/span&gt;&lt;/div&gt;&lt;div style=&quot;text-align: left;&quot;&gt;&lt;span style=&quot;text-align: center;&quot;&gt;max2_araç_sayısı = count(max_şerit2 )&lt;/span&gt;&lt;span style=&quot;background-color: initial;&quot;&gt;&lt;br&gt;&lt;/span&gt;&lt;/div&gt;&lt;/div&gt;&lt;/div&gt;" style="rounded=0;whiteSpace=wrap;html=1;" vertex="1" parent="1">
          <mxGeometry x="647.5" y="-950" width="395" height="270" as="geometry" />
        </mxCell>
        <mxCell id="6Bizmu3YoD56EzF2CStt-15" style="edgeStyle=orthogonalEdgeStyle;rounded=0;orthogonalLoop=1;jettySize=auto;html=1;exitX=0.5;exitY=1;exitDx=0;exitDy=0;entryX=0.5;entryY=0;entryDx=0;entryDy=0;strokeWidth=2;" edge="1" parent="1" source="6Bizmu3YoD56EzF2CStt-4" target="6Bizmu3YoD56EzF2CStt-9">
          <mxGeometry relative="1" as="geometry" />
        </mxCell>
        <mxCell id="6Bizmu3YoD56EzF2CStt-4" value="&lt;b&gt;&lt;font style=&quot;font-size: 20px;&quot;&gt;TRAFİK SENARYOSU&lt;/font&gt;&lt;/b&gt;" style="shape=hexagon;perimeter=hexagonPerimeter2;whiteSpace=wrap;html=1;fixedSize=1;" vertex="1" parent="1">
          <mxGeometry x="717.5" y="-650" width="255" height="80" as="geometry" />
        </mxCell>
        <mxCell id="6Bizmu3YoD56EzF2CStt-6" style="edgeStyle=orthogonalEdgeStyle;rounded=0;orthogonalLoop=1;jettySize=auto;html=1;dashed=1;strokeWidth=2;dashPattern=1 1;endArrow=oval;endFill=0;" edge="1" parent="1" source="6Bizmu3YoD56EzF2CStt-5" target="6Bizmu3YoD56EzF2CStt-3">
          <mxGeometry relative="1" as="geometry" />
        </mxCell>
        <mxCell id="6Bizmu3YoD56EzF2CStt-5" value="&lt;font style=&quot;font-size: 17px;&quot;&gt;Araç sayısılarını kameradan belirle ve bekleme sürelerini almaya başla&lt;/font&gt;" style="text;html=1;align=center;verticalAlign=middle;whiteSpace=wrap;rounded=0;fillColor=#fff2cc;strokeColor=#d6b656;" vertex="1" parent="1">
          <mxGeometry x="350" y="-860" width="245" height="90" as="geometry" />
        </mxCell>
        <mxCell id="6Bizmu3YoD56EzF2CStt-21" style="edgeStyle=orthogonalEdgeStyle;rounded=0;orthogonalLoop=1;jettySize=auto;html=1;exitX=0;exitY=0.5;exitDx=0;exitDy=0;strokeWidth=2;fillColor=#60a917;strokeColor=#2D7600;" edge="1" parent="1" source="6Bizmu3YoD56EzF2CStt-9" target="6Bizmu3YoD56EzF2CStt-20">
          <mxGeometry relative="1" as="geometry" />
        </mxCell>
        <mxCell id="6Bizmu3YoD56EzF2CStt-22" style="edgeStyle=orthogonalEdgeStyle;rounded=0;orthogonalLoop=1;jettySize=auto;html=1;exitX=1;exitY=0.5;exitDx=0;exitDy=0;entryX=0;entryY=0.5;entryDx=0;entryDy=0;strokeWidth=2;fillColor=#e51400;strokeColor=#B20000;" edge="1" parent="1" source="6Bizmu3YoD56EzF2CStt-9" target="6Bizmu3YoD56EzF2CStt-10">
          <mxGeometry relative="1" as="geometry" />
        </mxCell>
        <mxCell id="6Bizmu3YoD56EzF2CStt-9" value="&lt;font style=&quot;font-size: 20px;&quot;&gt;Ambulans Var Mı&lt;/font&gt;" style="rhombus;whiteSpace=wrap;html=1;" vertex="1" parent="1">
          <mxGeometry x="460" y="-510" width="230" height="80" as="geometry" />
        </mxCell>
        <mxCell id="6Bizmu3YoD56EzF2CStt-23" style="edgeStyle=orthogonalEdgeStyle;rounded=0;orthogonalLoop=1;jettySize=auto;html=1;exitX=0.5;exitY=1;exitDx=0;exitDy=0;entryX=0.5;entryY=0;entryDx=0;entryDy=0;strokeWidth=2;fillColor=#e51400;strokeColor=#B20000;" edge="1" parent="1" source="6Bizmu3YoD56EzF2CStt-10" target="6Bizmu3YoD56EzF2CStt-11">
          <mxGeometry relative="1" as="geometry" />
        </mxCell>
        <mxCell id="6Bizmu3YoD56EzF2CStt-40" style="edgeStyle=orthogonalEdgeStyle;rounded=0;orthogonalLoop=1;jettySize=auto;html=1;entryX=0.5;entryY=0;entryDx=0;entryDy=0;strokeWidth=2;fillColor=#60a917;strokeColor=#2D7600;" edge="1" parent="1" source="6Bizmu3YoD56EzF2CStt-10" target="6Bizmu3YoD56EzF2CStt-26">
          <mxGeometry relative="1" as="geometry">
            <Array as="points">
              <mxPoint x="1380" y="-470" />
              <mxPoint x="1380" y="-310" />
              <mxPoint x="1340" y="-310" />
            </Array>
          </mxGeometry>
        </mxCell>
        <mxCell id="6Bizmu3YoD56EzF2CStt-10" value="&lt;span style=&quot;font-size: 20px;&quot;&gt;Az Araçları Trafikten Çıkar&lt;/span&gt;" style="rhombus;whiteSpace=wrap;html=1;" vertex="1" parent="1">
          <mxGeometry x="910" y="-510" width="420" height="80" as="geometry" />
        </mxCell>
        <mxCell id="6Bizmu3YoD56EzF2CStt-38" style="edgeStyle=orthogonalEdgeStyle;rounded=0;orthogonalLoop=1;jettySize=auto;html=1;exitX=1;exitY=0.5;exitDx=0;exitDy=0;strokeWidth=2;fillColor=#e51400;strokeColor=#B20000;" edge="1" parent="1" source="6Bizmu3YoD56EzF2CStt-11" target="6Bizmu3YoD56EzF2CStt-29">
          <mxGeometry relative="1" as="geometry" />
        </mxCell>
        <mxCell id="6Bizmu3YoD56EzF2CStt-44" style="edgeStyle=orthogonalEdgeStyle;rounded=0;orthogonalLoop=1;jettySize=auto;html=1;exitX=0.5;exitY=1;exitDx=0;exitDy=0;strokeWidth=2;fillColor=#60a917;strokeColor=#2D7600;" edge="1" parent="1" source="6Bizmu3YoD56EzF2CStt-11" target="6Bizmu3YoD56EzF2CStt-12">
          <mxGeometry relative="1" as="geometry">
            <Array as="points">
              <mxPoint x="790" y="-180" />
              <mxPoint x="655" y="-180" />
            </Array>
          </mxGeometry>
        </mxCell>
        <mxCell id="6Bizmu3YoD56EzF2CStt-11" value="&lt;font style=&quot;font-size: 20px;&quot;&gt;&lt;br&gt;&lt;b&gt;EĞER &lt;/b&gt;max_araç sayısı - max_araç_hata_payı &amp;lt;= max2_araç_sayısı&lt;/font&gt;" style="rhombus;whiteSpace=wrap;html=1;" vertex="1" parent="1">
          <mxGeometry x="490" y="-380" width="600" height="160" as="geometry" />
        </mxCell>
        <mxCell id="6Bizmu3YoD56EzF2CStt-30" value="" style="edgeStyle=orthogonalEdgeStyle;rounded=0;orthogonalLoop=1;jettySize=auto;html=1;strokeWidth=2;fillColor=#60a917;strokeColor=#2D7600;" edge="1" parent="1" source="6Bizmu3YoD56EzF2CStt-12" target="6Bizmu3YoD56EzF2CStt-29">
          <mxGeometry relative="1" as="geometry" />
        </mxCell>
        <mxCell id="6Bizmu3YoD56EzF2CStt-32" value="" style="edgeStyle=orthogonalEdgeStyle;rounded=0;orthogonalLoop=1;jettySize=auto;html=1;strokeWidth=2;fillColor=#e51400;strokeColor=#B20000;" edge="1" parent="1" source="6Bizmu3YoD56EzF2CStt-12" target="6Bizmu3YoD56EzF2CStt-31">
          <mxGeometry relative="1" as="geometry" />
        </mxCell>
        <mxCell id="6Bizmu3YoD56EzF2CStt-12" value="&lt;font style=&quot;font-size: 20px;&quot;&gt;&lt;b&gt;ORTALAMA&lt;/b&gt;(max_şerit) &amp;gt;= &lt;b&gt;ORTALAMA&lt;/b&gt;(max2_şerit)&lt;/font&gt;" style="rhombus;whiteSpace=wrap;html=1;" vertex="1" parent="1">
          <mxGeometry x="460" y="-130" width="390" height="160" as="geometry" />
        </mxCell>
        <mxCell id="6Bizmu3YoD56EzF2CStt-14" style="edgeStyle=orthogonalEdgeStyle;rounded=0;orthogonalLoop=1;jettySize=auto;html=1;exitX=0.5;exitY=1;exitDx=0;exitDy=0;entryX=1;entryY=0;entryDx=0;entryDy=0;dashed=1;dashPattern=1 1;strokeWidth=2;endArrow=oval;endFill=0;" edge="1" parent="1" source="6Bizmu3YoD56EzF2CStt-13" target="6Bizmu3YoD56EzF2CStt-10">
          <mxGeometry relative="1" as="geometry" />
        </mxCell>
        <mxCell id="6Bizmu3YoD56EzF2CStt-13" value="&lt;font style=&quot;font-size: 17px;&quot;&gt;Bir yolda Max araba sayısından fazla araba varsa min araba sayısı (2-3-5 gibi araba sayısı) altındaki araçlara öncelik verilecek&lt;/font&gt;" style="text;html=1;align=center;verticalAlign=middle;whiteSpace=wrap;rounded=0;fillColor=#fff2cc;strokeColor=#d6b656;" vertex="1" parent="1">
          <mxGeometry x="1210" y="-685" width="320" height="135" as="geometry" />
        </mxCell>
        <mxCell id="6Bizmu3YoD56EzF2CStt-58" style="edgeStyle=orthogonalEdgeStyle;rounded=0;orthogonalLoop=1;jettySize=auto;html=1;entryX=1;entryY=1;entryDx=0;entryDy=0;dashed=1;dashPattern=1 1;endArrow=oval;endFill=0;" edge="1" parent="1" source="6Bizmu3YoD56EzF2CStt-19" target="6Bizmu3YoD56EzF2CStt-12">
          <mxGeometry relative="1" as="geometry">
            <Array as="points">
              <mxPoint x="870" y="310" />
              <mxPoint x="870" y="-10" />
            </Array>
          </mxGeometry>
        </mxCell>
        <mxCell id="6Bizmu3YoD56EzF2CStt-19" value="&lt;font style=&quot;font-size: 17px;&quot;&gt;&lt;u&gt;&lt;b&gt;ORTALAMA&lt;/b&gt;(yol_bilgisi)&lt;/u&gt; = &lt;b&gt;BÖLME&lt;/b&gt;&lt;font color=&quot;#ff0000&quot;&gt;(&lt;/font&gt;&amp;nbsp;&lt;font style=&quot;font-size: 17px;&quot;&gt;&lt;b&gt;TOPLAM&lt;/b&gt;&lt;font color=&quot;#ff9933&quot;&gt;(&lt;/font&gt;Araç Bekleme Süreleri, &lt;b&gt;ÇARPMA&lt;/b&gt;&lt;font color=&quot;#007fff&quot;&gt;(&lt;/font&gt;şerit_sayısı x Araç_kalkış_süresi&lt;font color=&quot;#3399ff&quot;&gt;)&lt;/font&gt; &lt;font color=&quot;#ff9933&quot;&gt;)&lt;/font&gt;&lt;/font&gt;&amp;nbsp;/ Araç Sayısı &lt;font color=&quot;#ff0000&quot;&gt;)&lt;/font&gt;&lt;/font&gt;" style="text;html=1;align=center;verticalAlign=middle;whiteSpace=wrap;rounded=0;fillColor=#d5e8d4;strokeColor=#82b366;" vertex="1" parent="1">
          <mxGeometry x="990" y="250" width="550" height="120" as="geometry" />
        </mxCell>
        <mxCell id="6Bizmu3YoD56EzF2CStt-43" style="edgeStyle=orthogonalEdgeStyle;rounded=0;orthogonalLoop=1;jettySize=auto;html=1;exitX=0.5;exitY=1;exitDx=0;exitDy=0;entryX=0;entryY=0.5;entryDx=0;entryDy=0;strokeWidth=2;" edge="1" parent="1" source="6Bizmu3YoD56EzF2CStt-20" target="6Bizmu3YoD56EzF2CStt-29">
          <mxGeometry relative="1" as="geometry" />
        </mxCell>
        <mxCell id="6Bizmu3YoD56EzF2CStt-20" value="&lt;font style=&quot;font-size: 20px;&quot;&gt;max_şerit = Ambulans_şerit&lt;/font&gt;" style="rounded=0;whiteSpace=wrap;html=1;" vertex="1" parent="1">
          <mxGeometry x="180" y="-310" width="280" height="60" as="geometry" />
        </mxCell>
        <mxCell id="6Bizmu3YoD56EzF2CStt-42" style="edgeStyle=orthogonalEdgeStyle;rounded=0;orthogonalLoop=1;jettySize=auto;html=1;exitX=0.5;exitY=1;exitDx=0;exitDy=0;entryX=1;entryY=0.5;entryDx=0;entryDy=0;strokeWidth=2;" edge="1" parent="1" source="6Bizmu3YoD56EzF2CStt-26" target="6Bizmu3YoD56EzF2CStt-29">
          <mxGeometry relative="1" as="geometry" />
        </mxCell>
        <mxCell id="6Bizmu3YoD56EzF2CStt-26" value="&lt;font style=&quot;font-size: 20px;&quot;&gt;max_şerit = min_şerit&lt;/font&gt;" style="whiteSpace=wrap;html=1;" vertex="1" parent="1">
          <mxGeometry x="1230" y="-180" width="220" height="60" as="geometry" />
        </mxCell>
        <mxCell id="6Bizmu3YoD56EzF2CStt-36" style="edgeStyle=orthogonalEdgeStyle;rounded=0;orthogonalLoop=1;jettySize=auto;html=1;exitX=0;exitY=0.5;exitDx=0;exitDy=0;entryX=0.5;entryY=0;entryDx=0;entryDy=0;strokeWidth=2;" edge="1" parent="1" source="6Bizmu3YoD56EzF2CStt-29" target="6Bizmu3YoD56EzF2CStt-34">
          <mxGeometry relative="1" as="geometry" />
        </mxCell>
        <mxCell id="6Bizmu3YoD56EzF2CStt-29" value="&lt;span style=&quot;color: rgb(0, 0, 0); font-family: Helvetica; font-style: normal; font-variant-ligatures: normal; font-variant-caps: normal; letter-spacing: normal; orphans: 2; text-align: center; text-indent: 0px; text-transform: none; widows: 2; word-spacing: 0px; -webkit-text-stroke-width: 0px; white-space: normal; background-color: rgb(251, 251, 251); text-decoration-thickness: initial; text-decoration-style: initial; text-decoration-color: initial; float: none; display: inline !important;&quot;&gt;&lt;font style=&quot;font-size: 20px;&quot;&gt;&lt;b&gt;YEŞİL&lt;/b&gt;(max_şerit)&lt;/font&gt;&lt;/span&gt;" style="whiteSpace=wrap;html=1;" vertex="1" parent="1">
          <mxGeometry x="1035" y="120" width="195" height="60" as="geometry" />
        </mxCell>
        <mxCell id="6Bizmu3YoD56EzF2CStt-35" value="" style="edgeStyle=orthogonalEdgeStyle;rounded=0;orthogonalLoop=1;jettySize=auto;html=1;strokeWidth=2;" edge="1" parent="1" source="6Bizmu3YoD56EzF2CStt-31" target="6Bizmu3YoD56EzF2CStt-34">
          <mxGeometry relative="1" as="geometry">
            <Array as="points">
              <mxPoint x="520" y="510" />
            </Array>
          </mxGeometry>
        </mxCell>
        <mxCell id="6Bizmu3YoD56EzF2CStt-31" value="&lt;font style=&quot;font-size: 20px;&quot;&gt;&lt;b&gt;YEŞİL&lt;/b&gt;(max_şerit2)&lt;/font&gt;" style="whiteSpace=wrap;html=1;" vertex="1" parent="1">
          <mxGeometry x="425" y="350" width="190" height="60" as="geometry" />
        </mxCell>
        <mxCell id="6Bizmu3YoD56EzF2CStt-46" style="edgeStyle=orthogonalEdgeStyle;rounded=0;orthogonalLoop=1;jettySize=auto;html=1;entryX=0;entryY=0.5;entryDx=0;entryDy=0;strokeWidth=2;" edge="1" parent="1" source="6Bizmu3YoD56EzF2CStt-34" target="6Bizmu3YoD56EzF2CStt-4">
          <mxGeometry relative="1" as="geometry">
            <Array as="points">
              <mxPoint x="795" y="600" />
              <mxPoint x="120" y="600" />
              <mxPoint x="120" y="-610" />
            </Array>
          </mxGeometry>
        </mxCell>
        <mxCell id="6Bizmu3YoD56EzF2CStt-62" value="" style="edgeStyle=orthogonalEdgeStyle;rounded=0;orthogonalLoop=1;jettySize=auto;html=1;strokeWidth=2;" edge="1" parent="1" source="6Bizmu3YoD56EzF2CStt-34" target="6Bizmu3YoD56EzF2CStt-61">
          <mxGeometry relative="1" as="geometry" />
        </mxCell>
        <mxCell id="6Bizmu3YoD56EzF2CStt-34" value="&lt;font style=&quot;font-size: 20px;&quot;&gt;&lt;b&gt;YELLOW&lt;/b&gt;(şerit)&lt;/font&gt;" style="whiteSpace=wrap;html=1;" vertex="1" parent="1">
          <mxGeometry x="700" y="480" width="190" height="60" as="geometry" />
        </mxCell>
        <mxCell id="6Bizmu3YoD56EzF2CStt-47" value="&lt;span&gt;&lt;font color=&quot;#00b500&quot; style=&quot;font-size: 20px;&quot;&gt;TRUE&lt;/font&gt;&lt;/span&gt;" style="text;html=1;align=center;verticalAlign=middle;whiteSpace=wrap;rounded=0;textShadow=0;labelBorderColor=none;labelBackgroundColor=none;fontStyle=1;fillColor=none;strokeColor=none;shadow=0;" vertex="1" parent="1">
          <mxGeometry x="370" y="-510" width="120" height="50" as="geometry" />
        </mxCell>
        <mxCell id="6Bizmu3YoD56EzF2CStt-48" value="&lt;span&gt;&lt;font color=&quot;#ff0000&quot; style=&quot;font-size: 20px;&quot;&gt;FALSE&lt;/font&gt;&lt;/span&gt;" style="text;html=1;align=center;verticalAlign=middle;whiteSpace=wrap;rounded=0;textShadow=0;labelBorderColor=none;labelBackgroundColor=none;fontStyle=1;fillColor=none;strokeColor=none;shadow=0;" vertex="1" parent="1">
          <mxGeometry x="660" y="-510" width="120" height="50" as="geometry" />
        </mxCell>
        <mxCell id="6Bizmu3YoD56EzF2CStt-50" value="&lt;span&gt;&lt;font color=&quot;#00b500&quot; style=&quot;font-size: 20px;&quot;&gt;TRUE&lt;/font&gt;&lt;/span&gt;" style="text;html=1;align=center;verticalAlign=middle;whiteSpace=wrap;rounded=0;textShadow=0;labelBorderColor=none;labelBackgroundColor=none;fontStyle=1;fillColor=none;strokeColor=none;shadow=0;" vertex="1" parent="1">
          <mxGeometry x="1290" y="-510" width="120" height="50" as="geometry" />
        </mxCell>
        <mxCell id="6Bizmu3YoD56EzF2CStt-51" value="&lt;span&gt;&lt;font color=&quot;#ff0000&quot; style=&quot;font-size: 20px;&quot;&gt;FALSE&lt;/font&gt;&lt;/span&gt;" style="text;html=1;align=center;verticalAlign=middle;whiteSpace=wrap;rounded=0;textShadow=0;labelBorderColor=none;labelBackgroundColor=none;fontStyle=1;fillColor=none;strokeColor=none;shadow=0;" vertex="1" parent="1">
          <mxGeometry x="1020" y="-440" width="120" height="40" as="geometry" />
        </mxCell>
        <mxCell id="6Bizmu3YoD56EzF2CStt-52" value="&lt;span&gt;&lt;font color=&quot;#00b500&quot; style=&quot;font-size: 20px;&quot;&gt;TRUE&lt;/font&gt;&lt;/span&gt;" style="text;html=1;align=center;verticalAlign=middle;whiteSpace=wrap;rounded=0;textShadow=0;labelBorderColor=none;labelBackgroundColor=none;fontStyle=1;fillColor=none;strokeColor=none;shadow=0;" vertex="1" parent="1">
          <mxGeometry x="700" y="-220" width="120" height="50" as="geometry" />
        </mxCell>
        <mxCell id="6Bizmu3YoD56EzF2CStt-54" value="&lt;span&gt;&lt;font color=&quot;#ff0000&quot; style=&quot;font-size: 20px;&quot;&gt;FALSE&lt;/font&gt;&lt;/span&gt;" style="text;html=1;align=center;verticalAlign=middle;whiteSpace=wrap;rounded=0;textShadow=0;labelBorderColor=none;labelBackgroundColor=none;fontStyle=1;fillColor=none;strokeColor=none;shadow=0;" vertex="1" parent="1">
          <mxGeometry x="1060" y="-340" width="120" height="40" as="geometry" />
        </mxCell>
        <mxCell id="6Bizmu3YoD56EzF2CStt-55" value="&lt;span&gt;&lt;font color=&quot;#00b500&quot; style=&quot;font-size: 20px;&quot;&gt;TRUE&lt;/font&gt;&lt;/span&gt;" style="text;html=1;align=center;verticalAlign=middle;whiteSpace=wrap;rounded=0;textShadow=0;labelBorderColor=none;labelBackgroundColor=none;fontStyle=1;fillColor=none;strokeColor=none;shadow=0;" vertex="1" parent="1">
          <mxGeometry x="820" y="-90" width="120" height="50" as="geometry" />
        </mxCell>
        <mxCell id="6Bizmu3YoD56EzF2CStt-57" value="&lt;span&gt;&lt;font color=&quot;#ff0000&quot; style=&quot;font-size: 20px;&quot;&gt;FALSE&lt;/font&gt;&lt;/span&gt;" style="text;html=1;align=center;verticalAlign=middle;whiteSpace=wrap;rounded=0;textShadow=0;labelBorderColor=none;labelBackgroundColor=none;fontStyle=1;fillColor=none;strokeColor=none;shadow=0;" vertex="1" parent="1">
          <mxGeometry x="640" y="30" width="120" height="40" as="geometry" />
        </mxCell>
        <mxCell id="6Bizmu3YoD56EzF2CStt-59" value="" style="group" vertex="1" connectable="0" parent="1">
          <mxGeometry x="1165" y="-1060" width="410" height="350" as="geometry" />
        </mxCell>
        <mxCell id="6Bizmu3YoD56EzF2CStt-28" style="edgeStyle=orthogonalEdgeStyle;rounded=0;orthogonalLoop=1;jettySize=auto;html=1;exitX=0.5;exitY=1;exitDx=0;exitDy=0;" edge="1" parent="6Bizmu3YoD56EzF2CStt-59" source="6Bizmu3YoD56EzF2CStt-16" target="6Bizmu3YoD56EzF2CStt-18">
          <mxGeometry relative="1" as="geometry" />
        </mxCell>
        <mxCell id="6Bizmu3YoD56EzF2CStt-16" value="&lt;font style=&quot;font-size: 17px;&quot;&gt;&lt;b&gt;YAPAY ZEKA KARAR VERME MEKANİZMASI&lt;/b&gt;&lt;/font&gt;" style="text;html=1;strokeColor=#d6b656;fillColor=#fff2cc;align=center;verticalAlign=middle;whiteSpace=wrap;rounded=0;" vertex="1" parent="6Bizmu3YoD56EzF2CStt-59">
          <mxGeometry x="65" width="280" height="70" as="geometry" />
        </mxCell>
        <mxCell id="6Bizmu3YoD56EzF2CStt-18" value="&lt;span style=&quot;font-size: 17px;&quot;&gt;4lü kavşakta trafik ışıklarında bir yolda 30 araç bekliyor ve bu araçlar ortalama 10sn dir bekliyor, başka bir yolda da 2 araç ortalama 10 sn&#39;dir bekliyor, diğer yolda 3 araba ortalama 12sn&#39;dir, diğer yolda 15 araç ortalama 15sn&#39;dir bekliyor. Problem şu, hangi yolun ışığını yeşil yakmak mantıklı? 2 araç 30 aracı mı beklemeli yoksa 30 araç 2 aracı mı beklemeli, veya araçların geçiş sırası mantıklı olarak hangi sıra ile olmalı&lt;/span&gt;" style="text;html=1;align=center;verticalAlign=middle;whiteSpace=wrap;rounded=0;fillColor=#fff2cc;strokeColor=#d6b656;" vertex="1" parent="6Bizmu3YoD56EzF2CStt-59">
          <mxGeometry y="110" width="410" height="240" as="geometry" />
        </mxCell>
        <mxCell id="6Bizmu3YoD56EzF2CStt-60" style="edgeStyle=orthogonalEdgeStyle;rounded=0;orthogonalLoop=1;jettySize=auto;html=1;exitX=0.5;exitY=1;exitDx=0;exitDy=0;entryX=0.5;entryY=0;entryDx=0;entryDy=0;" edge="1" parent="1" source="6Bizmu3YoD56EzF2CStt-18" target="6Bizmu3YoD56EzF2CStt-13">
          <mxGeometry relative="1" as="geometry" />
        </mxCell>
        <mxCell id="6Bizmu3YoD56EzF2CStt-61" value="&lt;font style=&quot;font-size: 20px;&quot;&gt;&lt;b&gt;BİTİŞ&lt;/b&gt;&lt;/font&gt;" style="ellipse;whiteSpace=wrap;html=1;strokeWidth=2;" vertex="1" parent="1">
          <mxGeometry x="687.5" y="730" width="215" height="80" as="geometry" />
        </mxCell>
      </root>
    </mxGraphModel>
  </diagram>
</mxfile>
